<?xml version="1.0" encoding="utf-8"?>
<!-- Generator: Adobe Illustrator 25.2.1, SVG Export Plug-In . SVG Version: 6.00 Build 0)  -->
<svg version="1.1" id="Camada_1" xmlns="http://www.w3.org/2000/svg" xmlns:xlink="http://www.w3.org/1999/xlink" x="0px" y="0px"
	 viewBox="0 0 141.7 165" style="enable-background:new 0 0 141.7 165;" xml:space="preserve">
<style type="text/css">
	.st0{fill:#2754A2;}
</style>
<g>
	<path class="st0" d="M109.4,102.8c0,21.3-17.2,38.5-38.5,38.5c-21.3,0-38.5-17.2-38.5-38.5c0-0.1,0-0.2,0-0.3h76.9
		C109.4,102.6,109.4,102.7,109.4,102.8z"/>
	<path class="st0" d="M122.1,41.5c-3.9-4-8.2-7.4-12.9-10.1c0.1-4,2.1-7.9,3.5-12.4c1-3.1,1.4-6.2,2.9-8.7l-7.3-2.3
		c-1.4,2.6-1.8,5.7-2.7,8.7c-1.2,3.9-3,7.3-3.6,10.9c-3.4-1.5-6.9-2.7-10.6-3.6c0-3.6,1.2-7.2,2-11.3c0.6-3.2,0.7-6.3,1.8-9
		l-7.5-1.4c-1,2.8-1.1,5.8-1.6,9c-0.7,4-2.1,7.6-2.2,11.2c-3.1-0.5-6.3-0.7-9.6-0.9c-1-3.8-0.3-8-0.3-12.6c0-3.3-0.5-6.3,0.2-9.2
		h-7.6c-0.5,2.9,0,5.9,0,9.1c0,4.5-0.8,8.7,0,12.6c-3.6,0.2-7.2,0.5-10.5,1.1c-1.2-3.4-1.1-7.3-1.7-11.4c-0.5-3.2-1.4-6.2-1.1-9.1
		l-7.6,1.1c-0.1,2.9,0.8,5.9,1.3,9c0.6,4.3,0.4,8.4,1.6,12c-3.8,1-7.4,2.4-10.8,4c-1.5-3.2-1.9-7.1-3-11.1c-0.8-3.1-2.1-6-2.2-8.9
		l-7.4,2c0.2,2.9,1.5,5.7,2.3,8.8c1.2,4.6,1.5,9.2,3.6,12.8c-4.2,2.7-8.1,5.9-11.7,9.7C6.4,55.5,0,73.1,0,94.8
		c0,20.6,6.6,37.4,19.9,50.5C33.2,158.4,50.1,165,70.7,165c21.3,0,38.4-6.6,51.4-19.9c13.1-13.3,19.6-30.6,19.6-51.9
		C141.7,72,135.2,54.8,122.1,41.5z M113.3,136.1c-10.8,11-25,16.5-42.6,16.5c-17,0-31-5.4-42.1-16.3c-11-10.8-16.5-24.8-16.5-41.8
		c0-18,5.2-32.5,15.8-43.7C38.5,39.6,52.8,34,70.7,34c17.5,0,31.7,5.5,42.5,16.4c10.8,10.9,16.3,25.2,16.3,42.7
		C129.5,110.8,124.1,125.1,113.3,136.1z"/>
	<circle class="st0" cx="45.4" cy="74" r="11.4"/>
	<circle class="st0" cx="99.6" cy="74" r="11.4"/>
</g>
</svg>
