<?xml version="1.0" encoding="utf-8"?>
<!-- Generator: Adobe Illustrator 25.2.1, SVG Export Plug-In . SVG Version: 6.00 Build 0)  -->
<svg version="1.1" id="Camada_1" xmlns="http://www.w3.org/2000/svg" xmlns:xlink="http://www.w3.org/1999/xlink" x="0px" y="0px"
	 viewBox="0 0 481.9 94" style="enable-background:new 0 0 481.9 94;" xml:space="preserve">
<style type="text/css">
	.st0{fill:#2754A2;}
	.st1{fill:#FFFFFF;}
</style>
<g>
	<path class="st0" d="M119.7,62.8c0,9.6-7.8,17.4-17.4,17.4c-9.6,0-17.4-7.8-17.4-17.4c0-0.1,0-0.1,0-0.2h34.8
		C119.7,62.7,119.7,62.7,119.7,62.8z"/>
	<path class="st0" d="M125.5,35.1c-1.8-1.8-3.7-3.3-5.8-4.6c0-1.8,0.9-3.6,1.6-5.6c0.4-1.4,0.6-2.8,1.3-3.9l-3.3-1
		c-0.6,1.2-0.8,2.6-1.2,3.9c-0.5,1.8-1.3,3.3-1.6,4.9c-1.5-0.7-3.1-1.2-4.8-1.6c0-1.6,0.6-3.3,0.9-5.1c0.3-1.5,0.3-2.8,0.8-4.1
		l-3.4-0.6c-0.5,1.2-0.5,2.6-0.7,4.1c-0.3,1.8-0.9,3.4-1,5c-1.4-0.2-2.9-0.3-4.4-0.4c-0.5-1.7-0.1-3.6-0.1-5.7
		c0-1.5-0.2-2.9,0.1-4.1h-3.5c-0.2,1.3,0,2.7,0,4.1c0,2-0.4,4,0,5.7c-1.6,0.1-3.2,0.2-4.8,0.5c-0.5-1.5-0.5-3.3-0.8-5.1
		c-0.2-1.5-0.6-2.8-0.5-4.1l-3.4,0.5c0,1.3,0.4,2.7,0.6,4.1c0.3,1.9,0.2,3.8,0.7,5.4c-1.7,0.5-3.3,1.1-4.9,1.8
		c-0.7-1.5-0.9-3.2-1.4-5c-0.4-1.4-0.9-2.7-1-4l-3.3,0.9c0.1,1.3,0.7,2.6,1.1,4c0.6,2.1,0.7,4.1,1.6,5.8c-1.9,1.2-3.7,2.7-5.3,4.4
		c-5.7,6.1-8.6,14.1-8.6,23.9c0,9.3,3,16.9,9,22.8c6,5.9,13.7,8.9,23,8.9c9.6,0,17.4-3,23.3-9c5.9-6,8.9-13.8,8.9-23.5
		C134.4,48.8,131.4,41.1,125.5,35.1z M121.5,77.8c-4.9,5-11.3,7.5-19.3,7.5c-7.7,0-14-2.4-19-7.4c-5-4.9-7.4-11.2-7.4-18.9
		c0-8.1,2.4-14.7,7.1-19.8c4.8-5.1,11.2-7.6,19.3-7.6c7.9,0,14.3,2.5,19.2,7.4c4.9,4.9,7.3,11.4,7.3,19.3
		C128.8,66.4,126.4,72.9,121.5,77.8z"/>
	<circle class="st0" cx="90.8" cy="49.7" r="5.1"/>
	<circle class="st0" cx="115.3" cy="49.7" r="5.1"/>
	<path class="st1" d="M67,22c0,0.8-0.5,1.3-1.4,1.3c-1.6,0-8-0.3-19.1-1c-0.3,10.7-0.4,18.2-0.4,22.4c0,5,0.2,12.5,0.6,22.5
		c0.4,10,0.6,17.5,0.6,22.5c0,0.8-0.2,1.3-0.6,1.5c-0.1,0.1-0.7,0.2-1.8,0.3c-2.5,0.3-6.3,0.5-11.2,0.5c-5.5,0-9.3-0.2-11.5-0.5
		c-1.2-0.2-1.8-0.9-1.8-2c0-5,0.2-12.5,0.6-22.5c0.4-10,0.6-17.5,0.6-22.5c0-3.3-0.2-10.7-0.5-22.1C12.8,23.5,6,23.9,1,23.9
		c-0.7,0-1-0.2-1-0.6c0-0.5,0.3-2.2,0.9-4.9c0.7-3,1.1-4.8,1.1-5.4c0.1-2,0.3-4,0.4-6C2.8,3.9,3.3,2.3,4,2.3c0.1,0,0.4,0,0.9,0.1
		c6.9,0.9,17,1.3,30.4,1.3c3.8,0,10.8-0.4,21.1-1.2c5.5-0.4,8.3-0.6,8.3-0.6c0.8,0,1.3,0.1,1.5,0.2c0.1,0.1,0.2,0.5,0.3,1.2
		c0,1.1,0,2.7-0.1,4.8c-0.1,2.2-0.1,3.8-0.1,4.8c0,1.1,0.1,2.6,0.4,4.7C66.8,19.5,67,21,67,22z"/>
	<path class="st1" d="M209.3,1.6c0-0.9-0.2,0.5-0.5,4.2c-0.5,4.7-0.8,10.7-1.1,18c-0.3,8.3-0.5,17.7-0.5,28.3
		c0,17.5,0.5,29.9,1.5,37.3c0.1,0.8,0.1,1.3,0.1,1.5c0,0.5-0.3,0.7-1,0.8c-1.5,0.2-7.1,0.3-16.8,0.3c-2.3,0-3.6-0.4-3.9-1.3
		c-0.1-1.6-0.2-3.2-0.3-4.8c0-0.3-0.2-0.7-0.5-1c-0.3,0.1-0.6,0.4-1,0.8c-4.6,4.5-10.3,6.7-17.1,6.7c-8.9,0-16.1-3.1-21.5-9.4
		c-5.1-6-7.7-13.5-7.7-22.6c0-9.2,2.5-16.8,7.6-22.8c5.3-6.3,12.5-9.5,21.6-9.5c6.4,0,11.4,2,14.9,6.1c0.6,0.7,1,1,1.3,1
		c0.4,0,0.6-0.5,0.6-1.7c0-3.3-0.1-8.1-0.3-14.6s-0.3-11.3-0.3-14.5c0-1.2,0.3-1.9,1-2.1c2.7-0.1,6.4-0.4,11.2-0.8
		c8.5-1.1,12.2-1.6,11.2-1.6C208.9,0,209.3,0.5,209.3,1.6z M185.4,59.9c0-3.3-1.2-6.3-3.5-8.8c-2.3-2.5-5.1-3.8-8.4-3.8
		c-3.5,0-6.2,1.3-8.3,3.8c-2.1,2.5-3.1,5.5-3.1,9c0,3.4,1,6.3,3.1,8.7c2.1,2.5,4.9,3.8,8.3,3.8c3.4,0,6.2-1.3,8.5-3.8
		C184.3,66.3,185.4,63.3,185.4,59.9z"/>
	<path class="st1" d="M286,1.6c0-0.9-0.2,0.5-0.5,4.2c-0.5,4.7-0.8,10.7-1.1,18c-0.3,8.3-0.5,17.7-0.5,28.3
		c0,17.5,0.5,29.9,1.5,37.3c0.1,0.8,0.1,1.3,0.1,1.5c0,0.5-0.3,0.7-1,0.8c-1.5,0.2-7.1,0.3-16.8,0.3c-2.3,0-3.6-0.4-3.9-1.3
		c-0.1-1.6-0.2-3.2-0.3-4.8c0-0.3-0.2-0.7-0.5-1c-0.3,0.1-0.6,0.4-1,0.8c-4.6,4.5-10.3,6.7-17.1,6.7c-8.9,0-16.1-3.1-21.5-9.4
		c-5.1-6-7.7-13.5-7.7-22.6c0-9.2,2.5-16.8,7.6-22.8c5.3-6.3,12.5-9.5,21.6-9.5c6.4,0,11.4,2,14.9,6.1c0.6,0.7,1,1,1.3,1
		c0.4,0,0.6-0.5,0.6-1.7c0-3.3-0.1-8.1-0.3-14.6c-0.2-6.5-0.3-11.3-0.3-14.5c0-1.2,0.3-1.9,1-2.1c2.7-0.1,6.4-0.4,11.2-0.8
		c8.5-1.1,12.2-1.6,11.2-1.6C285.5,0,286,0.5,286,1.6z M262.1,59.9c0-3.3-1.2-6.3-3.5-8.8c-2.3-2.5-5.1-3.8-8.4-3.8
		c-3.5,0-6.2,1.3-8.3,3.8c-2.1,2.5-3.1,5.5-3.1,9c0,3.4,1,6.3,3.1,8.7c2.1,2.5,4.9,3.8,8.3,3.8c3.4,0,6.2-1.3,8.5-3.8
		C260.9,66.3,262.1,63.3,262.1,59.9z"/>
	<path class="st1" d="M318.5,53.4c0,11.6,0,20.4,0.1,26.6c0,1,0.1,2.6,0.2,5c0.1,2.2,0.2,3.8,0.2,5c0,0.9-0.5,1.4-1.6,1.6
		c-1.9,0.3-5.3,0.5-10.3,0.5c-5.1,0-8.3-0.2-9.7-0.5c-0.9-0.2-1.5-0.8-1.6-1.7c0-0.1,0-1,0-2.7c0-3.8,0-9.4,0.1-16.9
		c0.1-7.5,0.1-13.1,0.1-16.9c0-17.8,0-25.9,0.1-24.3c-0.1-9.4-0.7-17.4-1.6-24.2c-0.1-0.5-0.1-0.8-0.1-1.1c0-0.9,0.5-1.4,1.7-1.4
		h22.7c1.1,0,1.5,0.4,1.5,1.3L320.2,5C319.1,23.2,318.5,39.4,318.5,53.4z"/>
	<path class="st1" d="M388.3,57.2c0,4.3-1.4,6.7-4.1,7.3c-0.5,0.1-4.8,0.6-13.1,1.4c-5,0.6-12.4,1.2-22.3,2c0.6,2.8,2.4,4.8,5.4,6.3
		c2.5,1.2,5.2,1.8,8.4,1.8c3.8,0,7.6-1,11.4-3c1.6-1,3.2-2,4.8-3c0.9,0.4,2.4,2.6,4.5,6.5c2.1,3.9,3.1,6.4,3.1,7.4
		c0,0.3-0.3,0.8-1,1.5c-5.2,5.5-13.2,8.3-24.1,8.3c-10.1,0-18.2-2.9-24.4-8.8c-6.3-6-9.5-13.9-9.5-23.9c0-9.7,2.8-17.7,8.5-23.9
		c5.8-6.4,13.6-9.6,23.2-9.6c8.1,0,15,3,20.7,8.9C385.4,42,388.3,49,388.3,57.2z M366.1,53.3c0-2.6-0.9-4.9-2.8-6.9
		c-1.9-2-4.1-3-6.7-3c-2.7,0-4.9,1.1-6.6,3.4c-1.6,2.1-2.4,4.5-2.4,7.3c0,1.1,0.6,1.7,1.8,1.7c3.1,0,8-0.5,14.6-1.5
		C365.4,54.1,366.1,53.8,366.1,53.3z"/>
	<path class="st1" d="M437.3,52.1c0,1.7-0.9,2.5-2.7,2.5c-0.8,0-2-0.1-3.5-0.2c-1.5-0.1-2.7-0.2-3.5-0.2c-3.5,0-5.9,0.6-7.2,1.7
		c-1.3,1.1-1.9,3.3-1.9,6.7c0,1.8,0,4.6,0.1,8.3c0.1,3.7,0.1,6.5,0.1,8.3c0,1.2,0.1,3.1,0.3,5.5c0.2,2.4,0.3,4.2,0.3,5.4
		c0,1-0.7,1.6-2.1,1.7c-2,0.2-5.1,0.3-9.3,0.3c-4,0-7.2-0.1-9.6-0.4c-1.4-0.2-2.1-0.9-2.1-2.1c0-3.4,0-8.5,0.1-15.2
		c0-6.7,0.1-11.8,0.1-15.2c0-9.9-0.9-18.1-2.7-24.6c-0.1-0.4-0.1-0.7-0.1-1c0-0.6,0.3-1.1,1-1.3c2.3-0.3,5.7-0.7,10.2-1.4
		c6.7-1.3,10.1-2,10.3-2c0.8,0,1.2,1.3,1.5,4c0.2,2.7,0.6,4,1.1,4c-0.6,0,1.1-1.1,5.2-3.3c4.1-2.2,8-3.3,11.7-3.3
		c2.4,0,3.6,0.5,3.6,1.5c0,1.2-0.1,3-0.4,5.2c-0.3,2.4-0.4,4.1-0.4,5.2c0,1.2,0,2.9,0.1,4.9C437.3,49.7,437.3,51.3,437.3,52.1z"/>
	<path class="st1" d="M481.9,40.3c0,0.4-0.3,1-1,1.7c-1.2-0.3-2.4-0.4-3.6-0.4c-2.5,0-4.6,0.6-6.3,1.7c-2,1.3-3,3.1-3,5.4
		c0,1.5,1.1,3.4,3.2,5.6c3.3,3.4,5.3,5.7,6,6.9c2.2,3.2,3.2,6.7,3.2,10.3c0,2.2-0.4,4.4-1.3,6.9c-1,2.7-2.2,4.6-3.7,5.8
		c-3.1,2.7-6.8,5-11,6.9c-4.5,1.9-8.7,2.9-12.5,2.9c-0.8,0-2.7-2.3-5.7-6.9c-2.9-4.6-4.4-7.4-4.4-8.4c0-0.4,0.2-0.6,0.7-0.7
		c3-0.5,5.9-1.1,8.9-1.7c3.7-1.2,5.6-3.1,5.6-5.8c0-1.9-1.1-4-3.2-6.5c-3.9-4.3-5.9-6.5-6-6.8c-2.2-3-3.2-6.3-3.2-9.6
		c0-6.3,3.2-11.7,9.6-16.2c5.8-3.9,11.9-5.9,18.5-5.9c0.7,0,2.3,2.3,5,6.8C480.6,36.9,481.9,39.5,481.9,40.3z"/>
</g>
</svg>
