<svg xmlns="http://www.w3.org/2000/svg" viewBox="0 0 644.7 125.76"><defs><style>.cls-1{fill:#0450bc;}.cls-2{fill:#f49c44;}</style></defs><g id="Camada_2" data-name="Camada 2"><g id="Camada_1-2" data-name="Camada 1"><path class="cls-1" d="M160.18,84a23.29,23.29,0,1,1-46.58,0,1.34,1.34,0,0,1,0-.2h46.56A1.34,1.34,0,0,1,160.18,84Z"/><path class="cls-1" d="M167.88,46.9a38.39,38.39,0,0,0-7.81-6.12c.06-2.44,1.26-4.77,2.11-7.48.58-1.88.85-3.73,1.75-5.26l-4.41-1.37a32.18,32.18,0,0,0-1.65,5.27c-.73,2.35-1.8,4.44-2.2,6.58a38.34,38.34,0,0,0-6.41-2.17c0-2.16.74-4.37,1.19-6.84.36-1.94.4-3.81,1.1-5.43L147,23.26a32.94,32.94,0,0,0-1,5.43c-.43,2.4-1.24,4.58-1.36,6.75a49.56,49.56,0,0,0-5.83-.51c-.62-2.32-.2-4.85-.2-7.62a25.84,25.84,0,0,1,.12-5.53h-4.62a31.78,31.78,0,0,0,0,5.52c0,2.74-.51,5.29,0,7.65a53.77,53.77,0,0,0-6.38.66c-.7-2-.69-4.4-1-6.88-.27-1.94-.82-3.74-.67-5.5l-4.57.65a31.19,31.19,0,0,0,.78,5.47c.37,2.59.26,5.07,1,7.27a37.9,37.9,0,0,0-6.52,2.44c-.91-1.94-1.17-4.27-1.82-6.68A26.61,26.61,0,0,1,113.5,27L109,28.19a33.64,33.64,0,0,0,1.42,5.34c.75,2.78.9,5.53,2.15,7.77a36.66,36.66,0,0,0-7.06,5.86Q94,59.42,94,79.13q0,18.68,12,30.57t30.74,11.89q19.29,0,31.12-12.07T179.77,78.1Q179.77,58.93,167.88,46.9Zm-5.31,57.23q-9.81,10-25.76,10-15.47,0-25.45-9.85T101.39,79q0-16.32,9.56-26.46t25.86-10.17q15.9,0,25.74,10t9.83,25.82Q172.38,94.17,162.57,104.13Z"/><circle class="cls-1" cx="121.49" cy="66.54" r="6.89"/><circle class="cls-1" cx="154.3" cy="66.54" r="6.89"/><path class="cls-2" d="M89.59,29.47c0,1.13-.62,1.7-1.87,1.7q-3.23,0-25.56-1.28-.51,21.48-.51,30,0,10,.81,30.14t.8,30.15c0,1.08-.25,1.75-.76,2a10.52,10.52,0,0,1-2.38.42,122.69,122.69,0,0,1-14.94.68,117.38,117.38,0,0,1-15.37-.68A2.49,2.49,0,0,1,27.43,120q0-10,.85-30.06t.85-30.06q0-6.63-.68-29.55Q11.46,32,1.36,32C.45,32,0,31.73,0,31.17a50,50,0,0,1,1.19-6.54c.9-4,1.41-6.37,1.53-7.22.17-2.66.36-5.32.59-8q.6-6.37,2-6.37l1.19.08Q20.3,4.93,47.21,4.93q7.65,0,28.2-1.62l11.12-.85a4.67,4.67,0,0,1,2,.21,3.09,3.09,0,0,1,.34,1.66c0,1.53,0,3.65-.17,6.37q-.16,4.5-.17,6.37A51.24,51.24,0,0,0,89,23.31,52.71,52.71,0,0,1,89.59,29.47Z"/><path class="cls-2" d="M280.06,2.12q0-1.86-.68,5.61-.93,9.42-1.44,24.11-.69,16.65-.68,37.88,0,35.07,1.95,49.93c.11,1.08.17,1.76.17,2,0,.62-.42,1-1.27,1.1q-3.06.42-22.51.43c-3,0-4.81-.6-5.26-1.79q-.18-3.23-.34-6.45a2.58,2.58,0,0,0-.68-1.36,5.47,5.47,0,0,0-1.27,1q-9.18,9-22.93,9-17.93,0-28.7-12.57-10.28-12-10.28-30.23,0-18.51,10.11-30.48,10.69-12.75,28.87-12.74,12.82,0,19.95,8.15c.8.91,1.36,1.36,1.7,1.36.51,0,.77-.74.77-2.21q0-6.54-.34-19.53t-.34-19.45c0-1.64.45-2.57,1.36-2.8q5.43-.25,14.94-1,17-2.12,15-2.12C279.44,0,280.06.71,280.06,2.12Zm-32,78a16.81,16.81,0,0,0-4.67-11.76,14.83,14.83,0,0,0-11.3-5.05A13.54,13.54,0,0,0,221,68.4a18.52,18.52,0,0,0-4.12,12.1A17.07,17.07,0,0,0,221,92.14a13.71,13.71,0,0,0,11,5.09,14.71,14.71,0,0,0,11.38-5.09A17.33,17.33,0,0,0,248.05,80.16Z"/><path class="cls-2" d="M382.64,2.12q0-1.86-.68,5.61-.93,9.42-1.44,24.11-.69,16.65-.68,37.88,0,35.07,2,49.93c.11,1.08.17,1.76.17,2,0,.62-.42,1-1.27,1.1q-3.06.42-22.51.43c-3.05,0-4.81-.6-5.26-1.79-.11-2.15-.23-4.3-.34-6.45a2.58,2.58,0,0,0-.68-1.36,5.47,5.47,0,0,0-1.27,1q-9.18,9-22.93,9-17.93,0-28.7-12.57-10.28-12-10.28-30.23,0-18.51,10.11-30.48,10.69-12.75,28.87-12.74,12.82,0,19.95,8.15c.8.91,1.36,1.36,1.7,1.36.51,0,.77-.74.77-2.21q0-6.54-.34-19.53t-.34-19.45c0-1.64.45-2.57,1.36-2.8q5.43-.25,14.94-1,17-2.12,15-2.12C382,0,382.64.71,382.64,2.12Zm-32,78A16.81,16.81,0,0,0,346,68.4a14.83,14.83,0,0,0-11.3-5.05,13.55,13.55,0,0,0-11.08,5.05,18.52,18.52,0,0,0-4.12,12.1,17.07,17.07,0,0,0,4.16,11.64,13.71,13.71,0,0,0,11,5.09A14.71,14.71,0,0,0,346,92.14,17.33,17.33,0,0,0,350.63,80.16Z"/><path class="cls-2" d="M426.12,71.5q0,23.19.17,35.58,0,2,.25,6.71c.17,2.89.26,5.12.26,6.71,0,1.19-.71,1.9-2.13,2.12a92.45,92.45,0,0,1-13.75.68q-10.2,0-13-.68a2.53,2.53,0,0,1-2.13-2.29v-3.65q0-7.56.17-22.63t.17-22.55q0-35.67.09-32.52A267.4,267.4,0,0,0,394.1,6.62a8.74,8.74,0,0,1-.16-1.44c0-1.24.73-1.87,2.2-1.87h30.32c1.41,0,2.06.6,2,1.79l-.08,1.52Q426.11,43.31,426.12,71.5Z"/><path class="cls-2" d="M519.44,76.51q0,8.58-5.52,9.77-.93.16-17.57,1.87-10,1.09-29.9,2.63,1.2,5.52,7.22,8.4a25.39,25.39,0,0,0,11.21,2.38,32.13,32.13,0,0,0,15.2-4.07l6.46-4.08q1.77.86,6,8.66t4.21,9.94c0,.39-.43,1-1.28,1.95q-10.37,11.13-32.18,11.12-20.22,0-32.61-11.8-12.74-12-12.74-32,0-19.53,11.38-32,11.71-12.9,31.08-12.9a36.88,36.88,0,0,1,27.68,11.88A39.5,39.5,0,0,1,519.44,76.51Zm-29.72-5.18A13.11,13.11,0,0,0,486,62.08a11.84,11.84,0,0,0-8.92-4,10.71,10.71,0,0,0-8.83,4.5A15.5,15.5,0,0,0,465,72.35c0,1.53.79,2.29,2.38,2.29a149.32,149.32,0,0,0,19.53-2C488.79,72.41,489.72,72,489.72,71.33Z"/><path class="cls-2" d="M585.09,69.72q0,3.32-3.66,3.31-1.6,0-4.71-.21c-2.07-.14-3.61-.21-4.63-.21-4.7,0-7.89.73-9.59,2.2S560,79.26,560,83.73c0,2.43,0,6.13.13,11.08s.12,8.65.12,11.08c0,1.65.12,4.09.34,7.35s.34,5.67.34,7.26c0,1.36-.93,2.12-2.8,2.29q-4.08.34-12.48.34a129.12,129.12,0,0,1-12.91-.51c-1.87-.22-2.8-1.16-2.8-2.8q0-6.79.08-20.34t.09-20.34q0-19.95-3.65-32.86a5.63,5.63,0,0,1-.17-1.27,1.66,1.66,0,0,1,1.27-1.7q4.66-.51,13.67-1.87,13.43-2.62,13.84-2.63,1.53,0,2,5.35c.28,3.56.79,5.35,1.53,5.35q-1.2,0,7-4.46a32.74,32.74,0,0,1,15.71-4.46q4.76,0,4.75,2a66.28,66.28,0,0,1-.51,7q-.49,4.84-.59,7,0,2.46.09,6.53C585,66.44,585.09,68.64,585.09,69.72Z"/><path class="cls-2" d="M644.7,53.92a4.13,4.13,0,0,1-1.28,2.3,19.33,19.33,0,0,0-4.75-.6,15.15,15.15,0,0,0-8.41,2.21,8,8,0,0,0-4.07,7.22q0,3,4.33,7.56a85,85,0,0,1,8.06,9.25,24.36,24.36,0,0,1,4.33,13.84,27.71,27.71,0,0,1-1.69,9.17q-2,5.35-4.93,7.82a58.72,58.72,0,0,1-14.69,9.17,42.76,42.76,0,0,1-16.73,3.9q-1.7,0-7.6-9.21t-5.9-11.25c0-.51.31-.82.93-.94l12-2.2q7.47-2.39,7.47-7.82,0-3.74-4.33-8.66-7.73-8.57-8.07-9.08A22,22,0,0,1,595,63.69Q595,51,607.93,42a43,43,0,0,1,24.71-7.89q1.35,0,6.71,9.13T644.7,53.92Z"/></g></g></svg>